REM DIRINDEX 1\2,1\4,1\3\5,1\3\6,1\3\7
REM DIRNAME cjc081,folder01,folder02,folder03,folder04,folder05,folder06
TITLE ""
FILE "CD1Track36.mp3" MP3
  TRACK 01 AUDIO
    TITLE "0:"
    INDEX 01 00:00:00
  TRACK 02 AUDIO
    TITLE "5:cjc081_0617"
    INDEX 01 00:00:23
  TRACK 03 AUDIO
    TITLE "0:"
    INDEX 01 00:02:40
  TRACK 04 AUDIO
    TITLE "6:cjc081_0618"
    INDEX 01 00:03:06
  TRACK 05 AUDIO
    TITLE "0:"
    INDEX 01 00:05:40
  TRACK 06 AUDIO
    TITLE "5:cjc081_0619"
    INDEX 01 00:06:08
  TRACK 07 AUDIO
    TITLE "0:"
    INDEX 01 00:07:49
  TRACK 08 AUDIO
    TITLE "6:cjc081_0620"
    INDEX 01 00:08:15
  TRACK 09 AUDIO
    TITLE "0:"
    INDEX 01 00:09:20
  TRACK 10 AUDIO
    TITLE "5:cjc081_0621"
    INDEX 01 00:09:59
  TRACK 11 AUDIO
    TITLE "0:"
    INDEX 01 00:11:07
  TRACK 12 AUDIO
    TITLE "6:cjc081_0622"
    INDEX 01 00:11:54
  TRACK 13 AUDIO
    TITLE "0:"
    INDEX 01 00:13:10
  TRACK 14 AUDIO
    TITLE "5:cjc081_0623"
    INDEX 01 00:13:51
  TRACK 15 AUDIO
    TITLE "0:"
    INDEX 01 00:14:74
  TRACK 16 AUDIO
    TITLE "6:cjc081_0624"
    INDEX 01 00:15:42
  TRACK 17 AUDIO
    TITLE "0:"
    INDEX 01 00:16:73
  TRACK 18 AUDIO
    TITLE "5:cjc081_0625"
    INDEX 01 00:17:37
  TRACK 19 AUDIO
    TITLE "0:"
    INDEX 01 00:18:64
  TRACK 20 AUDIO
    TITLE "6:cjc081_0626"
    INDEX 01 00:19:32
  TRACK 21 AUDIO
    TITLE "0:"
    INDEX 01 00:21:29
  TRACK 22 AUDIO
    TITLE "5:cjc081_0627"
    INDEX 01 00:21:74
  TRACK 23 AUDIO
    TITLE "0:"
    INDEX 01 00:23:08
  TRACK 24 AUDIO
    TITLE "6:cjc081_0628"
    INDEX 01 00:23:53
  TRACK 25 AUDIO
    TITLE "0:"
    INDEX 01 00:27:04
  TRACK 26 AUDIO
    TITLE "5:cjc081_0629"
    INDEX 01 00:27:49
  TRACK 27 AUDIO
    TITLE "0:"
    INDEX 01 00:28:60
  TRACK 28 AUDIO
    TITLE "6:cjc081_0630"
    INDEX 01 00:29:29
  TRACK 29 AUDIO
    TITLE "0:"
    INDEX 01 00:30:71
  TRACK 30 AUDIO
    TITLE "5:cjc081_0631"
    INDEX 01 00:31:39
  TRACK 31 AUDIO
    TITLE "0:"
    INDEX 01 00:32:58
  TRACK 32 AUDIO
    TITLE "6:cjc081_0632"
    INDEX 01 00:33:28
  TRACK 33 AUDIO
    TITLE "0:"
    INDEX 01 00:36:25
  TRACK 34 AUDIO
    TITLE "5:cjc081_0633"
    INDEX 01 00:36:66
  TRACK 35 AUDIO
    TITLE "0:"
    INDEX 01 00:38:14
  TRACK 36 AUDIO
    TITLE "6:cjc081_0634"
    INDEX 01 00:38:59
  TRACK 37 AUDIO
    TITLE "0:"
    INDEX 01 00:41:34
  TRACK 38 AUDIO
    TITLE "5:cjc081_0635"
    INDEX 01 00:42:02
  TRACK 39 AUDIO
    TITLE "0:"
    INDEX 01 00:43:29
  TRACK 40 AUDIO
    TITLE "6:cjc081_0636"
    INDEX 01 00:43:72
  TRACK 41 AUDIO
    TITLE "0:"
    INDEX 01 00:45:28
  TRACK 42 AUDIO
    TITLE "5:cjc081_0637"
    INDEX 01 00:45:73
  TRACK 43 AUDIO
    TITLE "0:"
    INDEX 01 00:47:17
  TRACK 44 AUDIO
    TITLE "6:cjc081_0638"
    INDEX 01 00:47:62
  TRACK 45 AUDIO
    TITLE "0:"
    INDEX 01 00:48:71
  TRACK 46 AUDIO
    TITLE "5:cjc081_0639"
    INDEX 01 00:49:39
  TRACK 47 AUDIO
    TITLE "0:"
    INDEX 01 00:51:32
  TRACK 48 AUDIO
    TITLE "6:cjc081_0640"
    INDEX 01 00:52:08
  TRACK 49 AUDIO
    TITLE "0:"
    INDEX 01 00:54:44
  TRACK 50 AUDIO
    TITLE "5:cjc081_0641"
    INDEX 01 00:55:04
  TRACK 51 AUDIO
    TITLE "0:"
    INDEX 01 00:56:29
  TRACK 52 AUDIO
    TITLE "6:cjc081_0642"
    INDEX 01 00:57:01
  TRACK 53 AUDIO
    TITLE "0:"
    INDEX 01 01:00:70
  TRACK 54 AUDIO
    TITLE "5:cjc081_0643"
    INDEX 01 01:01:36
  TRACK 55 AUDIO
    TITLE "0:"
    INDEX 01 01:02:46
  TRACK 56 AUDIO
    TITLE "6:cjc081_0644"
    INDEX 01 01:03:16
  TRACK 57 AUDIO
    TITLE "0:"
    INDEX 01 01:05:52
  TRACK 58 AUDIO
    TITLE "7:cjc081_0645"
    INDEX 01 01:07:15
  TRACK 59 AUDIO
    TITLE "0:"
    INDEX 01 01:17:53
